<?xml version="1.0" encoding="UTF-8" standalone="no"?>
<svg
   version="1.1"
   id="Layer_1"
   x="0px"
   y="0px"
   viewBox="0 0 504.00002 504"
   enable-background="new 0 0 1785.9999 1785.9999"
   xml:space="preserve"
   sodipodi:docname="PowerButtonUnselected.svg"
   inkscape:version="1.2.1 (9c6d41e410, 2022-07-14)"
   width="504"
   height="504"
   xmlns:inkscape="http://www.inkscape.org/namespaces/inkscape"
   xmlns:sodipodi="http://sodipodi.sourceforge.net/DTD/sodipodi-0.dtd"
   xmlns="http://www.w3.org/2000/svg"
   xmlns:svg="http://www.w3.org/2000/svg"><defs
   id="defs148" /><sodipodi:namedview
   id="namedview146"
   pagecolor="#ffffff"
   bordercolor="#111111"
   borderopacity="1"
   inkscape:showpageshadow="0"
   inkscape:pageopacity="0"
   inkscape:pagecheckerboard="1"
   inkscape:deskcolor="#d1d1d1"
   showgrid="false"
   inkscape:zoom="1.36512"
   inkscape:cx="345.39088"
   inkscape:cy="249.79489"
   inkscape:window-width="1920"
   inkscape:window-height="1017"
   inkscape:window-x="1912"
   inkscape:window-y="-8"
   inkscape:window-maximized="1"
   inkscape:current-layer="g143"
   showguides="false" />
<g
   id="g143"
   transform="matrix(0.31499998,0,0,0.315,-29.29496,-29.294962)">
	<g
   id="g133">
		<linearGradient
   id="SVGID_1_"
   gradientUnits="userSpaceOnUse"
   x1="1442.8275"
   y1="343.17249"
   x2="330.76309"
   y2="1455.2368">
			<stop
   offset="0"
   style="stop-color:#929596"
   id="stop114" />
			<stop
   offset="0.1085"
   style="stop-color:#ADB0B0"
   id="stop116" />
			<stop
   offset="0.2542"
   style="stop-color:#CBCCCD"
   id="stop118" />
			<stop
   offset="0.409"
   style="stop-color:#E2E3E3"
   id="stop120" />
			<stop
   offset="0.5747"
   style="stop-color:#F2F3F3"
   id="stop122" />
			<stop
   offset="0.7592"
   style="stop-color:#FCFCFC"
   id="stop124" />
			<stop
   offset="1"
   style="stop-color:#FFFFFF"
   id="stop126" />
		</linearGradient>
		<circle
   fill="url(#SVGID_1_)"
   cx="892.99988"
   cy="892.99988"
   r="800"
   id="circle129"
   style="fill:url(#SVGID_1_)" />
		<path
   fill="#ffffff"
   d="M 892.9999,93 C 746.0729,93 608.4048,132.6206 490.0751,201.7425 605.2085,137.5684 737.8327,101 878.9999,101 1320.8278,101 1679,459.1722 1679,901 c 0,294.9008 -159.5729,552.5212 -397.0752,691.2575 C 1527.1382,1455.5784 1693,1193.6606 1693,892.9999 1693,451.1721 1334.8279,93 892.9999,93 Z"
   id="path131" />
	</g>
	<g
   id="g141">
		
		
			
	<path
   style="display:inline;fill:#737373;fill-opacity:1;stroke:#737373;stroke-width:8.01907;stroke-dasharray:none;stroke-dashoffset:0;stroke-opacity:1"
   d="m 248.53557,270.6339 c -1.49842,-0.79122 -3.14663,-2.17764 -3.66269,-3.0809 -0.73945,-1.29429 -0.9799,-15.61317 -1.13467,-67.57058 l -0.19639,-65.92827 2.76027,-1.80815 c 3.65415,-2.3937 7.73294,-2.3937 11.36143,0 l 2.74089,1.80815 -0.17701,66.62358 -0.177,66.62359 -3.17023,2.41796 c -3.64936,2.78341 -4.60679,2.88834 -8.3446,0.91462 z"
   id="path4864"
   transform="matrix(3.1746034,0,0,3.1746032,92.999879,92.999879)" /><path
   style="display:inline;fill:#737373;fill-opacity:1;stroke:#737373;stroke-width:7.92238;stroke-dasharray:none;stroke-dashoffset:0;stroke-opacity:1"
   d="m 240.63818,373.44486 c -10.13927,-0.79657 -25.188,-5.14771 -36.26055,-10.48426 -32.09254,-15.4674 -55.76967,-45.82134 -62.2052,-79.7467 -1.60902,-8.48206 -1.61549,-34.53418 -0.0105,-42.42347 2.82986,-13.91043 9.68019,-29.84432 18.16006,-42.24033 8.29734,-12.12917 23.04667,-26.12953 28.63107,-27.17717 5.931,-1.11266 11.08865,5.59128 8.38099,10.89364 -0.44939,0.88003 -4.4942,5.2261 -8.98846,9.65795 -15.48569,15.27063 -23.35437,28.42818 -27.81823,46.51605 -6.72811,27.26276 -2.14808,53.8472 13.30342,77.21872 4.5829,6.93196 17.68454,19.84471 25.227,24.86329 10.14986,6.75349 21.23569,11.486 32.79001,13.99798 8.39494,1.82511 25.87904,2.24498 35.03773,0.8414 39.40648,-6.03908 70.71812,-36.6293 78.18473,-76.38336 1.87269,-9.97069 1.15029,-31.19374 -1.36739,-40.17176 -5.61345,-20.01745 -12.61658,-31.72088 -27.94449,-46.70001 -9.31403,-9.1021 -9.55766,-9.42015 -9.53911,-12.45312 0.0254,-4.14033 1.9757,-6.91207 5.63526,-8.00851 2.64018,-0.79102 3.26367,-0.70314 6.32883,0.89199 4.11293,2.1404 18.89165,16.68534 24.16479,23.78255 4.19202,5.6421 13.16559,23.12362 15.41697,30.03398 4.7114,14.46113 6.39679,26.88158 5.6127,41.36265 -0.94287,17.41363 -3.88209,28.51042 -11.74545,44.3441 -18.77361,37.8026 -59.04833,62.49602 -100.73863,61.76534 -3.8275,-0.0671 -8.44248,-0.23851 -10.25551,-0.38095 z"
   id="path4922"
   transform="matrix(3.1746034,0,0,3.1746032,92.999879,92.999879)" /></g>
</g>
</svg>
