<?xml version="1.0" encoding="UTF-8" standalone="no"?>
<!-- Generator: Adobe Illustrator 13.0.2, SVG Export Plug-In  -->

<svg
   version="1.1"
   x="0px"
   y="0px"
   width="130px"
   height="56px"
   viewBox="0 0 130 56"
   enable-background="new 0 0 130 56"
   xml:space="preserve"
   id="svg517"
   sodipodi:docname="ToggleSwitch.svg"
   inkscape:version="1.2.1 (9c6d41e410, 2022-07-14)"
   xmlns:inkscape="http://www.inkscape.org/namespaces/inkscape"
   xmlns:sodipodi="http://sodipodi.sourceforge.net/DTD/sodipodi-0.dtd"
   xmlns="http://www.w3.org/2000/svg"
   xmlns:svg="http://www.w3.org/2000/svg"><sodipodi:namedview
   id="namedview519"
   pagecolor="#ffffff"
   bordercolor="#111111"
   borderopacity="1"
   inkscape:showpageshadow="0"
   inkscape:pageopacity="0"
   inkscape:pagecheckerboard="1"
   inkscape:deskcolor="#d1d1d1"
   showgrid="false"
   inkscape:zoom="10.784615"
   inkscape:cx="65"
   inkscape:cy="28.002853"
   inkscape:window-width="1920"
   inkscape:window-height="1017"
   inkscape:window-x="1912"
   inkscape:window-y="58"
   inkscape:window-maximized="1"
   inkscape:current-layer="svg517" />
<defs
   id="defs501">
</defs>
<linearGradient
   id="SVGID_1_"
   gradientUnits="userSpaceOnUse"
   x1="-37.5005"
   y1="-66"
   x2="-37.5005"
   y2="-121.9985"
   gradientTransform="matrix(1 0 0 -1 102.5 -66)">
	<stop
   offset="0.0056"
   style="stop-color:#000000"
   id="stop503" />
	<stop
   offset="1"
   style="stop-color:#EAECEF"
   id="stop505" />
</linearGradient>
<path
   fill="url(#SVGID_1_)"
   d="M101.998,55.998H28c-15.439,0-28-12.562-28-28C0,12.56,12.561,0,28,0h73.998  c15.439,0,28,12.559,28,27.998C129.998,43.438,117.438,55.998,101.998,55.998L101.998,55.998z"
   id="path508" />
<linearGradient
   id="SVGID_2_"
   gradientUnits="userSpaceOnUse"
   x1="-5.5"
   y1="-132.1338"
   x2="-69.5002"
   y2="-55.8613"
   gradientTransform="matrix(1 0 0 -1 102.5 -66)">
	<stop
   offset="0.0056"
   style="stop-color:#000000"
   id="stop510" />
	<stop
   offset="1"
   style="stop-color:#828385"
   id="stop512" />
</linearGradient>
<path
   fill="url(#SVGID_2_)"
   d="M127.999,27.998c0,14.359-11.642,26-26,26h-74c-14.359,0-26-11.641-26-26l0,0  c0-14.359,11.641-26,26-26h74C116.357,1.998,127.999,13.639,127.999,27.998L127.999,27.998z"
   id="path515" />
</svg>
